<?xml version="1.0" encoding="utf-8"?>
<!-- Generator: Adobe Illustrator 23.0.3, SVG Export Plug-In . SVG Version: 6.00 Build 0)  -->
<svg version="1.1" id="Layer_1" xmlns="http://www.w3.org/2000/svg" xmlns:xlink="http://www.w3.org/1999/xlink" x="0px" y="0px"
	 viewBox="0 0 80 49.63" style="enable-background:new 0 0 80 49.63;" xml:space="preserve">
<style type="text/css">
	.st0{fill:#1C1C1C;}
</style>
<g>
	<path class="st0" d="M76.54,21.35H11.82L27.26,5.91c1.35-1.35,1.35-3.55,0-4.9c-1.35-1.35-3.55-1.35-4.9,0L1.01,22.37
		c-1.35,1.35-1.35,3.55,0,4.9l21.35,21.35c0.68,0.68,1.56,1.01,2.45,1.01c0.89,0,1.77-0.34,2.45-1.01c1.35-1.35,1.35-3.55,0-4.9
		L11.82,28.28h64.71c1.91,0,3.46-1.55,3.46-3.46S78.45,21.35,76.54,21.35z"/>
</g>
</svg>
