<?xml version="1.0" encoding="utf-8"?>
<!-- Generator: Adobe Illustrator 23.0.3, SVG Export Plug-In . SVG Version: 6.00 Build 0)  -->
<svg version="1.1" id="Layer_1" xmlns="http://www.w3.org/2000/svg" xmlns:xlink="http://www.w3.org/1999/xlink" x="0px" y="0px"
	 viewBox="0 0 80 80" style="enable-background:new 0 0 80 80;" xml:space="preserve">
<path d="M39.94,0c-22.18,0-40,17.82-40,40s17.82,40,40,40s40-17.82,40-40S62.13,0,39.94,0z M61.76,41.82c0,1.09-0.73,1.82-1.82,1.82
	H44.49c-0.55,0-0.91,0.36-0.91,0.91V60c0,1.09-0.73,1.82-1.82,1.82h-3.64c-1.09,0-1.82-0.73-1.82-1.82V44.55
	c0-0.55-0.36-0.91-0.91-0.91H19.94c-1.09,0-1.82-0.73-1.82-1.82v-3.64c0-1.09,0.73-1.82,1.82-1.82H35.4c0.55,0,0.91-0.36,0.91-0.91
	V20c0-1.09,0.73-1.82,1.82-1.82h3.64c1.09,0,1.82,0.73,1.82,1.82v15.45c0,0.55,0.36,0.91,0.91,0.91h15.45
	c1.09,0,1.82,0.73,1.82,1.82V41.82z"/>
</svg>
