<?xml version="1.0" encoding="utf-8"?>
<!-- Generator: Adobe Illustrator 23.0.3, SVG Export Plug-In . SVG Version: 6.00 Build 0)  -->
<svg version="1.1" id="Layer_1" xmlns="http://www.w3.org/2000/svg" xmlns:xlink="http://www.w3.org/1999/xlink" x="0px" y="0px"
	 viewBox="0 0 80 80" style="enable-background:new 0 0 80 80;" xml:space="preserve">
<style type="text/css">
	.st0{fill:#E5E5E5;}
</style>
<g>
	<path class="st0" d="M77.35,80H46.66c-1.46,0-2.65-1.18-2.65-2.65V42.45c0-1.46,1.18-2.65,2.65-2.65h30.69
		c1.46,0,2.65,1.18,2.65,2.65v34.91C80,78.82,78.82,80,77.35,80z"/>
	<path class="st0" d="M33.34,40.2H2.65C1.18,40.2,0,39.01,0,37.55V2.65C0,1.18,1.18,0,2.65,0h30.69c1.46,0,2.65,1.18,2.65,2.65
		v34.91C35.98,39.01,34.8,40.2,33.34,40.2z"/>
	<path class="st0" d="M33.34,80H2.65C1.18,80,0,78.82,0,77.35V50.8c0-1.46,1.18-2.65,2.65-2.65h30.69c1.46,0,2.65,1.18,2.65,2.65
		v26.55C35.98,78.82,34.8,80,33.34,80z"/>
	<path class="st0" d="M77.35,31.84H46.66c-1.46,0-2.65-1.18-2.65-2.65V2.65C44.02,1.18,45.2,0,46.66,0h30.69
		C78.82,0,80,1.18,80,2.65V29.2C80,30.66,78.82,31.84,77.35,31.84z"/>
</g>
</svg>
