<?xml version="1.0" encoding="utf-8"?>
<!-- Generator: Adobe Illustrator 23.0.3, SVG Export Plug-In . SVG Version: 6.00 Build 0)  -->
<svg version="1.1" id="Layer_1" xmlns="http://www.w3.org/2000/svg" xmlns:xlink="http://www.w3.org/1999/xlink" x="0px" y="0px"
	 viewBox="0 0 52.77 80" style="enable-background:new 0 0 52.77 80;" xml:space="preserve">
<style type="text/css">
	.st0{fill:#E5E5E5;}
</style>
<path class="st0" d="M52.46,33.14c-0.48-0.9-1.45-1.52-2.48-1.52l-18.33-0.14l5.31-28.12c0.28-1.24-0.41-2.55-1.59-3.1
	c-1.17-0.55-2.55-0.21-3.38,0.83L0.63,40.58c-0.69,0.83-0.83,2-0.34,2.96c0.48,0.96,1.45,1.59,2.55,1.59l20.26,0.14l-5.44,31.43
	c-0.28,1.31,0.41,2.62,1.65,3.1C19.65,79.93,20,80,20.34,80c0.9,0,1.79-0.41,2.34-1.24l29.57-42.73
	C52.87,35.2,52.94,34.03,52.46,33.14z"/>
</svg>
