<?xml version="1.0" encoding="utf-8"?>
<!-- Generator: Adobe Illustrator 23.0.3, SVG Export Plug-In . SVG Version: 6.00 Build 0)  -->
<svg version="1.1" id="Capa_1" xmlns="http://www.w3.org/2000/svg" xmlns:xlink="http://www.w3.org/1999/xlink" x="0px" y="0px"
	 viewBox="0 0 80 62.9" style="enable-background:new 0 0 80 62.9;" xml:space="preserve">
<style type="text/css">
	.st0{fill:#FFFFFF;}
</style>
<g>
	<g>
		<path class="st0" d="M7.7,19.4c1,0.7,4.1,2.8,9.2,6.4c5.1,3.5,9,6.2,11.7,8.1c0.3,0.2,0.9,0.7,1.9,1.4c1,0.7,1.8,1.3,2.4,1.7
			c0.6,0.4,1.4,0.9,2.3,1.5c0.9,0.5,1.8,0.9,2.6,1.2c0.8,0.3,1.5,0.4,2.2,0.4h0h0c0.7,0,1.4-0.1,2.2-0.4c0.8-0.3,1.7-0.7,2.6-1.2
			c0.9-0.5,1.7-1,2.3-1.5c0.6-0.4,1.4-1,2.4-1.7c1-0.7,1.6-1.2,1.9-1.4c2.7-1.9,9.7-6.7,20.9-14.5c2.2-1.5,4-3.3,5.4-5.5
			c1.5-2.1,2.2-4.4,2.2-6.7c0-2-0.7-3.6-2.1-5c-1.4-1.4-3.1-2.1-5-2.1H7.1C4.9,0,3.1,0.8,1.9,2.3C0.6,3.9,0,5.8,0,8.1
			C0,10,0.8,12,2.5,14.2C4.1,16.4,5.8,18.1,7.7,19.4z"/>
		<path class="st0" d="M75.5,24.2c-9.8,6.6-17.2,11.7-22.2,15.4c-1.7,1.2-3.1,2.2-4.1,2.9c-1.1,0.7-2.5,1.4-4.2,2.1
			c-1.8,0.7-3.4,1.1-4.9,1.1h0h0c-1.5,0-3.2-0.4-4.9-1.1c-1.8-0.7-3.2-1.4-4.2-2.1c-1.1-0.7-2.4-1.7-4.1-2.9
			c-4-2.9-11.4-8.1-22.2-15.4C2.8,23,1.3,21.7,0,20.3v35.4c0,2,0.7,3.6,2.1,5c1.4,1.4,3.1,2.1,5,2.1h65.7c2,0,3.6-0.7,5-2.1
			c1.4-1.4,2.1-3.1,2.1-5V20.3C78.7,21.7,77.2,23,75.5,24.2z"/>
	</g>
</g>
</svg>
