<?xml version="1.0" encoding="utf-8"?>
<!-- Generator: Adobe Illustrator 23.0.3, SVG Export Plug-In . SVG Version: 6.00 Build 0)  -->
<svg version="1.1" id="Capa_1" xmlns="http://www.w3.org/2000/svg" xmlns:xlink="http://www.w3.org/1999/xlink" x="0px" y="0px"
	 viewBox="0 0 80 47.7" style="enable-background:new 0 0 80 47.7;" xml:space="preserve">
<style type="text/css">
	.st0{fill:#D7D7D7;}
</style>
<g>
	<path class="st0" d="M40,0C24.7,0,10.9,8.4,0.6,21.9c-0.8,1.1-0.8,2.7,0,3.8c10.2,13.6,24.1,22,39.4,22s29.1-8.4,39.4-21.9
		c0.8-1.1,0.8-2.7,0-3.8C69.1,8.4,55.3,0,40,0z M41.1,40.6C31,41.3,22.6,32.9,23.2,22.7c0.5-8.4,7.3-15.2,15.7-15.7
		C49,6.4,57.4,14.8,56.8,24.9C56.3,33.3,49.5,40.1,41.1,40.6z M40.6,32.9c-5.5,0.3-10-4.2-9.6-9.6c0.3-4.5,3.9-8.2,8.5-8.5
		c5.5-0.3,10,4.2,9.6,9.6C48.8,28.9,45.1,32.6,40.6,32.9z"/>
</g>
</svg>
