<?xml version="1.0" encoding="utf-8"?>
<!-- Generator: Adobe Illustrator 23.0.3, SVG Export Plug-In . SVG Version: 6.00 Build 0)  -->
<svg version="1.1" id="Layer_1" xmlns="http://www.w3.org/2000/svg" xmlns:xlink="http://www.w3.org/1999/xlink" x="0px" y="0px"
	 viewBox="0 0 756.85 619.77" style="enable-background:new 0 0 756.85 619.77;" xml:space="preserve">
<style type="text/css">
	.st0{fill:#1C1C1C;}
</style>
<g>
	<path class="st0" d="M264.88,619.77c-8.94,0-17.34-3.48-23.66-9.8L9.8,378.56C3.48,372.24,0,363.83,0,354.89
		c0-8.94,3.48-17.34,9.8-23.67L331.23,9.8c6.76-6.76,16.08-10.31,25.66-9.74l218.38,13.03h0c16.9,1.01,30.41,14.51,31.42,31.41
		l13.03,218.38c0.57,9.54-2.98,18.89-9.74,25.65L288.54,609.97C282.22,616.29,273.82,619.77,264.88,619.77z M354.89,29.95
		c-0.93,0-1.83,0.37-2.49,1.03L30.98,352.4c-0.85,0.85-1.03,1.82-1.03,2.49c0,0.66,0.18,1.64,1.03,2.49L262.39,588.8
		c0.85,0.85,1.82,1.03,2.49,1.03c0.67,0,1.64-0.18,2.49-1.03l321.43-321.43c0.71-0.71,1.08-1.69,1.02-2.7L576.79,46.29
		c-0.11-1.78-1.53-3.2-3.3-3.3h0L355.1,29.95C355.03,29.95,354.96,29.95,354.89,29.95z"/>
	<path class="st0" d="M466.29,213.77c-15.45,0-30.89-5.88-42.65-17.63c-23.51-23.52-23.51-61.78,0-85.3
		c23.52-23.51,61.78-23.51,85.3,0c23.51,23.51,23.51,61.78,0,85.3l0,0C497.18,207.89,481.73,213.77,466.29,213.77z M466.29,123.13
		c-7.78,0-15.55,2.96-21.48,8.88c-11.84,11.84-11.84,31.11,0,42.95c11.84,11.84,31.11,11.84,42.95,0c11.84-11.84,11.84-31.1,0-42.95
		C481.84,126.09,474.06,123.13,466.29,123.13z"/>
	<path class="st0" d="M653.69,292.37c-25.45,0-53.68-4.86-82.43-15.04c-84.33-29.87-136.47-92.56-118.7-142.72
		c4.79-13.53,14.07-24.77,27.57-33.43l16.16,25.21c-7.77,4.98-12.98,11.1-15.5,18.21c-10.47,29.57,27.4,78.62,100.47,104.5
		c73.07,25.88,133.37,11.6,143.85-17.97c5.15-14.54-1.46-33.68-18.13-52.48c-19.05-21.48-48.29-39.96-82.34-52.02
		c-10.74-3.8-21.66-6.85-32.46-9.04l5.97-29.34c12.16,2.48,24.43,5.89,36.48,10.16c38.75,13.72,72.4,35.17,94.75,60.38
		c24.48,27.61,32.98,56.85,23.95,82.35C741.63,274.19,702.88,292.37,653.69,292.37z"/>
	<path class="st0" d="M441.88,342.57c-3.83,0-7.66-1.46-10.59-4.39L280.67,187.56c-5.85-5.85-5.85-15.33,0-21.17
		c5.85-5.85,15.33-5.85,21.18,0l150.62,150.62c5.85,5.85,5.85,15.33,0,21.17C449.55,341.11,445.71,342.57,441.88,342.57z"/>
	<path class="st0" d="M368.19,416.26c-3.83,0-7.66-1.46-10.59-4.39L206.98,261.25c-5.85-5.85-5.85-15.33,0-21.17
		c5.85-5.85,15.33-5.85,21.18,0l150.62,150.62c5.85,5.85,5.85,15.33,0,21.17C375.86,414.8,372.02,416.26,368.19,416.26z"/>
	<path class="st0" d="M219.21,414.67c-3.83,0-7.66-1.46-10.59-4.39l-74.95-74.95c-5.85-5.85-5.85-15.33,0-21.17
		c5.85-5.85,15.33-5.85,21.18,0l74.95,74.95c5.85,5.85,5.85,15.33,0,21.17C226.88,413.2,223.04,414.67,219.21,414.67z"/>
</g>
</svg>
