<?xml version="1.0" encoding="utf-8"?>
<!-- Generator: Adobe Illustrator 23.0.3, SVG Export Plug-In . SVG Version: 6.00 Build 0)  -->
<svg version="1.1" id="Layer_1" xmlns="http://www.w3.org/2000/svg" xmlns:xlink="http://www.w3.org/1999/xlink" x="0px" y="0px"
	 viewBox="0 0 756.85 744.53" style="enable-background:new 0 0 756.85 744.53;" xml:space="preserve">
<style type="text/css">
	.st0{fill:#1C1C1C;}
</style>
<g>
	<path class="st0" d="M378.43,744.53c-2.88,0-5.75-0.66-8.37-1.98L10.24,561.29C3.93,558.12,0,551.75,0,544.68
		c0-7.07,3.92-13.44,10.23-16.62L174.8,445.1l13.48,26.74L43.8,544.67l334.62,168.56l334.62-168.56l-144.48-72.83l13.48-26.74
		l164.56,82.96c6.32,3.19,10.24,9.56,10.23,16.63c0,7.07-3.93,13.43-10.24,16.61L386.8,742.55
		C384.18,743.87,381.3,744.53,378.43,744.53z"/>
	<path class="st0" d="M378.43,572.18c-2.88,0-5.75-0.66-8.37-1.98L10.24,388.95C3.93,385.77,0,379.4,0,372.33
		s3.92-13.44,10.23-16.62l164.57-82.96l13.48,26.74L43.8,372.32l334.62,168.56l334.62-168.56L568.57,299.5l13.48-26.74l164.56,82.95
		c6.32,3.19,10.24,9.56,10.23,16.63c0,7.07-3.93,13.43-10.24,16.61L386.8,570.2C384.18,571.52,381.3,572.18,378.43,572.18z"/>
	<path class="st0" d="M378.43,399.84c-2.88,0-5.75-0.66-8.37-1.98L10.24,216.6C3.92,213.42,0,207.05,0,199.98
		c0-7.07,3.92-13.44,10.23-16.62L370.05,1.98c5.25-2.64,11.51-2.65,16.75,0l359.82,181.38c6.31,3.18,10.23,9.55,10.23,16.62
		c0,7.07-3.92,13.44-10.23,16.62l0,0L386.8,397.86C384.18,399.18,381.3,399.84,378.43,399.84z M43.8,199.98l334.62,168.56
		l334.62-168.56L378.43,31.3L43.8,199.98z M733.14,189.86C733.14,189.86,733.14,189.86,733.14,189.86L733.14,189.86L733.14,189.86z"
		/>
</g>
</svg>
