<?xml version="1.0" encoding="utf-8"?>
<!-- Generator: Adobe Illustrator 23.0.3, SVG Export Plug-In . SVG Version: 6.00 Build 0)  -->
<svg version="1.1" id="Layer_1" xmlns="http://www.w3.org/2000/svg" xmlns:xlink="http://www.w3.org/1999/xlink" x="0px" y="0px"
	 viewBox="0 0 756.85 756.84" style="enable-background:new 0 0 756.85 756.84;" xml:space="preserve">
<style type="text/css">
	.st0{fill:#1C1C1C;}
</style>
<g>
	<path class="st0" d="M312.65,256.23l-17.99-23.94c53.89-40.48,118.09-61.88,185.67-61.88c65.34,0,127.8,20.12,180.65,58.19
		l-17.5,24.3c-47.72-34.37-104.14-52.54-163.15-52.54C419.29,200.35,361.3,219.67,312.65,256.23z"/>
	<path class="st0" d="M229.85,661.5c-38.55-53.06-58.93-115.89-58.93-181.69c0-67.47,21.34-131.59,61.7-185.43l23.96,17.96
		c-36.45,48.62-55.72,106.53-55.72,167.47c0,59.43,18.4,116.17,53.21,164.09L229.85,661.5z"/>
	<path class="st0" d="M685.35,340.02c-5.5,0-11.01-2.09-15.19-6.28l-50-50c-4.06-4.05-6.3-9.45-6.3-15.2
		c0-5.75,2.24-11.15,6.3-15.21l49.99-49.99c8.39-8.38,22.02-8.38,30.4-0.01l50,50c4.06,4.05,6.3,9.45,6.3,15.2
		c0,5.75-2.24,11.15-6.3,15.21l-49.99,49.99C696.36,337.93,690.86,340.02,685.35,340.02z M647.3,268.54l38.05,38.05l38.05-38.05
		l-38.05-38.05L647.3,268.54z"/>
	<path class="st0" d="M268.54,756.84c-5.51,0-11.01-2.09-15.2-6.29l-50-50c-8.38-8.38-8.38-22.02,0-30.4l50-50
		c8.38-8.39,22.02-8.39,30.41,0l50,50c8.38,8.38,8.38,22.02,0,30.4l-50,50C279.55,754.75,274.05,756.84,268.54,756.84z
		 M230.49,685.36l38.05,38.05l38.05-38.05l-38.05-38.05L230.49,685.36z"/>
	<path class="st0" d="M269.06,340.09c-5.74,0-11.14-2.24-15.2-6.3l-50-50c-4.06-4.06-6.3-9.46-6.3-15.2c0-5.74,2.24-11.14,6.3-15.2
		l49.99-50c4.06-4.06,9.46-6.3,15.2-6.3c5.75,0,11.15,2.24,15.21,6.3l49.99,50c4.06,4.06,6.3,9.46,6.3,15.2
		c0,5.74-2.23,11.14-6.29,15.2l-50,50C280.21,337.86,274.81,340.09,269.06,340.09z M231.01,268.6l38.05,38.05l38.05-38.05
		l-38.05-38.05L231.01,268.6z"/>
	
		<rect x="271.28" y="158.04" transform="matrix(0.7071 -0.7072 0.7072 0.7071 -15.5939 308.3788)" class="st0" width="186.27" height="29.95"/>
	
		<rect x="79.78" y="349.21" transform="matrix(0.7071 -0.7072 0.7072 0.7071 -206.7847 229.1916)" class="st0" width="186.93" height="29.95"/>
	<path class="st0" d="M69.04,537.66C30.97,537.66,0,506.69,0,468.62s30.97-69.04,69.04-69.04s69.04,30.97,69.04,69.04
		S107.11,537.66,69.04,537.66z M69.04,429.53c-21.56,0-39.09,17.54-39.09,39.09s17.54,39.09,39.09,39.09s39.09-17.54,39.09-39.09
		S90.6,429.53,69.04,429.53z"/>
	<path class="st0" d="M468.62,138.08c-38.07,0-69.04-30.97-69.04-69.04S430.55,0,468.62,0s69.04,30.97,69.04,69.04
		S506.69,138.08,468.62,138.08z M468.62,29.95c-21.56,0-39.09,17.54-39.09,39.09s17.54,39.09,39.09,39.09s39.09-17.54,39.09-39.09
		S490.18,29.95,468.62,29.95z"/>
</g>
</svg>
