<?xml version="1.0" encoding="utf-8"?>
<!-- Generator: Adobe Illustrator 23.0.3, SVG Export Plug-In . SVG Version: 6.00 Build 0)  -->
<svg version="1.1" id="Layer_1" xmlns="http://www.w3.org/2000/svg" xmlns:xlink="http://www.w3.org/1999/xlink" x="0px" y="0px"
	 viewBox="0 0 756.85 662.84" style="enable-background:new 0 0 756.85 662.84;" xml:space="preserve">
<style type="text/css">
	.st0{fill:#1C1C1C;}
</style>
<g>
	<path class="st0" d="M623.76,662.84H21.54C9.66,662.84,0,653.18,0,641.3V158.07c0-11.87,9.66-21.54,21.54-21.54h602.23
		c11.87,0,21.54,9.66,21.54,21.54V641.3C645.3,653.18,635.64,662.84,623.76,662.84z M29.95,632.89h585.4V166.48H29.95V632.89z"/>
	<path class="st0" d="M684.98,589.06c-0.7,0-1.4-0.04-2.11-0.11l-54.17-5.89l3.24-29.77l43.44,4.72L725.8,94.33L143.83,31.05
		l-13.27,122.07l-29.77-3.24L115.22,17.1c0.55-5.09,3.05-9.66,7.05-12.87c3.99-3.2,8.99-4.67,14.08-4.11l603.41,65.61
		c10.5,1.14,18.12,10.62,16.98,21.12l-52.74,485.12c-0.55,5.09-3.05,9.66-7.05,12.87C693.51,587.59,689.32,589.06,684.98,589.06z"/>
	<path class="st0" d="M385.12,552.8c-4.74,0-9.42-1.76-13.09-5.17L205.99,393.21L23.65,522.94l-17.36-24.4l189.44-134.78
		c7.42-5.27,17.63-4.6,24.28,1.6l166.67,155l236.27-133.71l14.75,26.07l-243.1,137.57C391.63,551.98,388.36,552.8,385.12,552.8z
		 M379.86,524.22c-0.01,0.01-0.02,0.01-0.02,0.01L379.86,524.22z"/>
	<path class="st0" d="M384.51,384.6c-39.73,0-72.06-32.33-72.06-72.06c0-39.74,32.33-72.06,72.06-72.06
		c39.74,0,72.06,32.33,72.06,72.06C456.58,352.27,424.25,384.6,384.51,384.6z M384.51,270.42c-23.22,0-42.11,18.89-42.11,42.12
		c0,23.22,18.89,42.11,42.11,42.11c23.22,0,42.12-18.89,42.12-42.11C426.63,289.32,407.74,270.42,384.51,270.42z"/>
</g>
</svg>
