<?xml version="1.0" encoding="utf-8"?>
<!-- Generator: Adobe Illustrator 23.0.3, SVG Export Plug-In . SVG Version: 6.00 Build 0)  -->
<svg version="1.1" id="Layer_1" xmlns="http://www.w3.org/2000/svg" xmlns:xlink="http://www.w3.org/1999/xlink" x="0px" y="0px"
	 viewBox="0 0 756.85 504.8" style="enable-background:new 0 0 756.85 504.8;" xml:space="preserve">
<style type="text/css">
	.st0{fill:#1C1C1C;}
</style>
<g>
	<path class="st0" d="M117.53,334.88L58.06,495.6H0L185.5,0h58.05l185.49,495.6h-58.05l-59.47-160.72H117.53z M214.52,63.01
		l-79.29,222.31h159.3L214.52,63.01z"/>
	<path class="st0" d="M603.92,261.25c46.73,0,82.13,17.7,97,33.28v-45.31c0-51.68-34.69-81.42-89.21-81.42
		c-45.31,0-82.13,16.28-108.32,31.86l-22.66-41.06c24.78-15.58,73.63-40.35,135.94-40.35c100.53,0,140.18,55.93,140.18,134.52V495.6
		h-48.14l-6.37-31.15c-19.11,21.95-50.27,40.35-99.83,40.35c-80.71,0-140.18-50.97-140.18-122.48
		C462.32,312.23,521.09,261.25,603.92,261.25z M611.71,458.07c53.81,0,91.33-31.86,91.33-76.47c0-46.02-36.82-75.75-92.04-75.75
		c-55.93,0-92.04,32.57-92.04,75.75C518.97,424.09,555.07,458.07,611.71,458.07z"/>
</g>
</svg>
