<?xml version="1.0" encoding="utf-8"?>
<!-- Generator: Adobe Illustrator 23.0.3, SVG Export Plug-In . SVG Version: 6.00 Build 0)  -->
<svg version="1.1" id="Layer_1" xmlns="http://www.w3.org/2000/svg" xmlns:xlink="http://www.w3.org/1999/xlink" x="0px" y="0px"
	 viewBox="0 0 278 278" style="enable-background:new 0 0 278 278;" xml:space="preserve">
<style type="text/css">
	.st0{fill:#1C1C1C;}
</style>
<path class="st0" d="M270.1,278H7.9c-4.36,0-7.9-3.54-7.9-7.9V7.9C0,3.54,3.54,0,7.9,0h262.2c4.36,0,7.9,3.54,7.9,7.9v262.2
	C278,274.46,274.46,278,270.1,278z M11,267h256V11H11V267z"/>
<path class="st0" d="M238.37,105.36H39.63c-4.36,0-7.9-3.54-7.9-7.9V39.22c0-4.36,3.54-7.9,7.9-7.9h198.74c4.36,0,7.9,3.54,7.9,7.9
	v58.24C246.27,101.81,242.73,105.36,238.37,105.36z M42.73,94.36h192.54V42.32H42.73V94.36z"/>
<path class="st0" d="M238.37,176.65H136.88c-4.36,0-7.9-3.54-7.9-7.9v-35.23c0-4.36,3.54-7.9,7.9-7.9h101.49
	c4.36,0,7.9,3.54,7.9,7.9v35.23C246.27,173.11,242.73,176.65,238.37,176.65z M139.98,165.65h95.29v-29.03h-95.29V165.65z"/>
<path class="st0" d="M238.37,246.82H136.88c-4.36,0-7.9-3.54-7.9-7.9v-35.23c0-4.36,3.54-7.9,7.9-7.9h101.49
	c4.36,0,7.9,3.54,7.9,7.9v35.23C246.27,243.27,242.73,246.82,238.37,246.82z M139.98,235.82h95.29v-29.02h-95.29V235.82z"/>
<path class="st0" d="M100.58,246.82H39.63c-4.36,0-7.9-3.54-7.9-7.9V133.53c0-4.36,3.54-7.9,7.9-7.9h60.95c4.36,0,7.9,3.54,7.9,7.9
	v105.39C108.48,243.27,104.93,246.82,100.58,246.82z M42.73,235.82h54.75v-99.19H42.73V235.82z"/>
</svg>
