<?xml version="1.0" encoding="utf-8"?>
<!-- Generator: Adobe Illustrator 23.0.3, SVG Export Plug-In . SVG Version: 6.00 Build 0)  -->
<svg version="1.1" id="Layer_1" xmlns="http://www.w3.org/2000/svg" xmlns:xlink="http://www.w3.org/1999/xlink" x="0px" y="0px"
	 viewBox="0 0 756.85 469.36" style="enable-background:new 0 0 756.85 469.36;" xml:space="preserve">
<style type="text/css">
	.st0{fill:#1C1C1C;}
</style>
<g>
	<path class="st0" d="M15.4,448.41c-3.83,0-7.66-1.46-10.59-4.39c-5.85-5.85-5.85-15.33,0-21.17l198.43-198.43L4.68,25.86
		c-5.7-5.7-6.23-14.99-0.8-20.95c5.79-6.37,15.66-6.54,21.68-0.52l215.09,215.1c2.73,2.73,2.73,7.14,0,9.87L25.98,444.02
		C23.06,446.95,19.23,448.41,15.4,448.41z"/>
	<path class="st0" d="M741.88,469.36H281.13c-8.27,0-14.97-6.71-14.97-14.97s6.7-14.97,14.97-14.97h460.75
		c8.27,0,14.97,6.71,14.97,14.97S750.15,469.36,741.88,469.36z"/>
</g>
</svg>
